M48
INCH,TZ
T1C0.059
T2C0.067
T3C0.157
T4C0.331
%
G90
G05
T1
X64478Y-31890
X67234Y-31890
T2
X33039Y-21260
X33039Y-28740
X33039Y-36220
X33039Y-43701
X37039Y-21260
X37039Y-28740
X37039Y-36220
X37039Y-43701
X40520Y-21260
X40520Y-28740
X40520Y-36220
X40520Y-43701
X44520Y-21260
X44520Y-28740
X44520Y-36220
X44520Y-43701
X48000Y-21260
X48000Y-28740
X48000Y-36220
X48000Y-43701
X48000Y-51181
X52000Y-21260
X52000Y-28740
X52000Y-36220
X52000Y-43701
X52000Y-51181
X55480Y-21260
X55480Y-28740
X55480Y-36220
X55480Y-43701
X55480Y-51181
X59480Y-21260
X59480Y-28740
X59480Y-36220
X59480Y-43701
X59480Y-51181
X62961Y-21260
X62961Y-28740
X62961Y-36220
X62961Y-43701
X62961Y-51181
X66961Y-21260
X66961Y-28740
X66961Y-36220
X66961Y-43701
X66961Y-51181
T3
X35039Y-21260
X35039Y-28740
X35039Y-36220
X35039Y-43701
X42520Y-21260
X42520Y-28740
X42520Y-36220
X42520Y-43701
X50000Y-21260
X50000Y-28740
X50000Y-36220
X50000Y-43701
X50000Y-51181
X57480Y-21260
X57480Y-28740
X57480Y-36220
X57480Y-43701
X57480Y-51181
X64961Y-21260
X64961Y-28740
X64961Y-36220
X64961Y-43701
X64961Y-51181
T4
X38780Y-25000
X38780Y-39961
X61220Y-25000
X61220Y-47441
T0
M30
