G04 #@! TF.FileFunction,Soldermask,Top*
%FSLAX46Y46*%
G04 Gerber Fmt 4.6, Leading zero omitted, Abs format (unit mm)*
G04 Created by KiCad (PCBNEW 4.0.7) date 2017 December 10, Sunday 13:49:37*
%MOMM*%
%LPD*%
G01*
G04 APERTURE LIST*
%ADD10C,0.100000*%
%ADD11C,2.286000*%
%ADD12C,8.400000*%
%ADD13R,1.200000X1.200000*%
%ADD14R,1.600000X1.600000*%
%ADD15C,1.600000*%
%ADD16R,1.700000X1.700000*%
%ADD17R,1.752600X1.752600*%
%ADD18C,1.752600*%
%ADD19R,1.200000X2.500000*%
%ADD20C,1.500000*%
G04 APERTURE END LIST*
D10*
D11*
X129540000Y-86920000D03*
X124460000Y-86920000D03*
X123190000Y-89460000D03*
X130810000Y-89460000D03*
D12*
X98500000Y-101500000D03*
X98500000Y-63500000D03*
X155500000Y-63500000D03*
X155500000Y-120500000D03*
D13*
X90575000Y-63500000D03*
X87425000Y-63500000D03*
D14*
X85100000Y-63500000D03*
D15*
X92900000Y-63500000D03*
D13*
X98500000Y-55575000D03*
X98500000Y-52425000D03*
D14*
X98500000Y-50100000D03*
D15*
X98500000Y-57900000D03*
D13*
X109575000Y-63500000D03*
X106425000Y-63500000D03*
D14*
X104100000Y-63500000D03*
D15*
X111900000Y-63500000D03*
D13*
X147575000Y-63500000D03*
X144425000Y-63500000D03*
D14*
X142100000Y-63500000D03*
D15*
X149900000Y-63500000D03*
D13*
X155500000Y-55825000D03*
X155500000Y-52675000D03*
D14*
X155500000Y-50350000D03*
D15*
X155500000Y-58150000D03*
D13*
X90575000Y-82500000D03*
X87425000Y-82500000D03*
D14*
X85100000Y-82500000D03*
D15*
X92900000Y-82500000D03*
D13*
X109575000Y-82500000D03*
X106425000Y-82500000D03*
D14*
X104100000Y-82500000D03*
D15*
X111900000Y-82500000D03*
D13*
X128575000Y-82500000D03*
X125425000Y-82500000D03*
D14*
X123100000Y-82500000D03*
D15*
X130900000Y-82500000D03*
D13*
X147575000Y-82500000D03*
X144425000Y-82500000D03*
D14*
X142100000Y-82500000D03*
D15*
X149900000Y-82500000D03*
D13*
X166825000Y-63500000D03*
X163675000Y-63500000D03*
D14*
X161350000Y-63500000D03*
D15*
X169150000Y-63500000D03*
D13*
X90575000Y-101500000D03*
X87425000Y-101500000D03*
D14*
X85100000Y-101500000D03*
D15*
X92900000Y-101500000D03*
D13*
X109575000Y-101500000D03*
X106425000Y-101500000D03*
D14*
X104100000Y-101500000D03*
D15*
X111900000Y-101500000D03*
D13*
X128575000Y-101500000D03*
X125425000Y-101500000D03*
D14*
X123100000Y-101500000D03*
D15*
X130900000Y-101500000D03*
D13*
X147575000Y-101500000D03*
X144425000Y-101500000D03*
D14*
X142100000Y-101500000D03*
D15*
X149900000Y-101500000D03*
D13*
X166575000Y-101500000D03*
X163425000Y-101500000D03*
D14*
X161100000Y-101500000D03*
D15*
X168900000Y-101500000D03*
D13*
X98500000Y-112575000D03*
X98500000Y-109425000D03*
D14*
X98500000Y-107100000D03*
D15*
X98500000Y-114900000D03*
D13*
X117500000Y-112575000D03*
X117500000Y-109425000D03*
D14*
X117500000Y-107100000D03*
D15*
X117500000Y-114900000D03*
D13*
X136500000Y-112575000D03*
X136500000Y-109425000D03*
D14*
X136500000Y-107100000D03*
D15*
X136500000Y-114900000D03*
D13*
X155500000Y-112575000D03*
X155500000Y-109425000D03*
D14*
X155500000Y-107100000D03*
D15*
X155500000Y-114900000D03*
D13*
X166575000Y-120500000D03*
X163425000Y-120500000D03*
D14*
X161100000Y-120500000D03*
D15*
X168900000Y-120500000D03*
D13*
X136500000Y-131575000D03*
X136500000Y-128425000D03*
D14*
X136500000Y-126100000D03*
D15*
X136500000Y-133900000D03*
D13*
X147575000Y-120500000D03*
X144425000Y-120500000D03*
D14*
X142100000Y-120500000D03*
D15*
X149900000Y-120500000D03*
D13*
X155500000Y-131575000D03*
X155500000Y-128425000D03*
D14*
X155500000Y-126100000D03*
D15*
X155500000Y-133900000D03*
D16*
X155500000Y-82500000D03*
X97000000Y-47250000D03*
D11*
X91540000Y-48920000D03*
X86460000Y-48920000D03*
X85190000Y-51460000D03*
X92810000Y-51460000D03*
X110540000Y-48920000D03*
X105460000Y-48920000D03*
X104190000Y-51460000D03*
X111810000Y-51460000D03*
X129540000Y-48920000D03*
X124460000Y-48920000D03*
X123190000Y-51460000D03*
X130810000Y-51460000D03*
X148540000Y-48920000D03*
X143460000Y-48920000D03*
X142190000Y-51460000D03*
X149810000Y-51460000D03*
X167540000Y-48920000D03*
X162460000Y-48920000D03*
X161190000Y-51460000D03*
X168810000Y-51460000D03*
X91540000Y-67920000D03*
X86460000Y-67920000D03*
X85190000Y-70460000D03*
X92810000Y-70460000D03*
X110540000Y-67920000D03*
X105460000Y-67920000D03*
X104190000Y-70460000D03*
X111810000Y-70460000D03*
X129540000Y-67920000D03*
X124460000Y-67920000D03*
X123190000Y-70460000D03*
X130810000Y-70460000D03*
X148540000Y-67920000D03*
X143460000Y-67920000D03*
X142190000Y-70460000D03*
X149810000Y-70460000D03*
X167540000Y-67920000D03*
X162460000Y-67920000D03*
X161190000Y-70460000D03*
X168810000Y-70460000D03*
X91540000Y-86920000D03*
X86460000Y-86920000D03*
X85190000Y-89460000D03*
X92810000Y-89460000D03*
X110540000Y-86920000D03*
X105460000Y-86920000D03*
X104190000Y-89460000D03*
X111810000Y-89460000D03*
X148540000Y-86920000D03*
X143460000Y-86920000D03*
X142190000Y-89460000D03*
X149810000Y-89460000D03*
X167540000Y-86920000D03*
X162460000Y-86920000D03*
X161190000Y-89460000D03*
X168810000Y-89460000D03*
X91540000Y-105920000D03*
X86460000Y-105920000D03*
X85190000Y-108460000D03*
X92810000Y-108460000D03*
X110540000Y-105920000D03*
X105460000Y-105920000D03*
X104190000Y-108460000D03*
X111810000Y-108460000D03*
X129540000Y-105920000D03*
X124460000Y-105920000D03*
X123190000Y-108460000D03*
X130810000Y-108460000D03*
X148540000Y-105920000D03*
X143460000Y-105920000D03*
X142190000Y-108460000D03*
X149810000Y-108460000D03*
X167540000Y-105920000D03*
X162460000Y-105920000D03*
X161190000Y-108460000D03*
X168810000Y-108460000D03*
X129540000Y-124920000D03*
X124460000Y-124920000D03*
X123190000Y-127460000D03*
X130810000Y-127460000D03*
X148540000Y-124920000D03*
X143460000Y-124920000D03*
X142190000Y-127460000D03*
X149810000Y-127460000D03*
X167540000Y-124920000D03*
X162460000Y-124920000D03*
X161190000Y-127460000D03*
X168810000Y-127460000D03*
D16*
X99750000Y-47250000D03*
X117500000Y-82500000D03*
D17*
X119380000Y-49780000D03*
D18*
X119380000Y-52320000D03*
X119380000Y-54860000D03*
X119380000Y-57400000D03*
X119380000Y-59940000D03*
X119380000Y-62480000D03*
X119380000Y-65020000D03*
X119380000Y-67560000D03*
X119380000Y-70100000D03*
X119380000Y-72640000D03*
X119380000Y-75180000D03*
X134620000Y-77720000D03*
X134620000Y-75180000D03*
X134620000Y-72640000D03*
X134620000Y-70100000D03*
X134620000Y-67560000D03*
X134620000Y-65020000D03*
X134620000Y-62480000D03*
X134620000Y-59940000D03*
X134620000Y-57400000D03*
X134620000Y-54860000D03*
X134620000Y-52320000D03*
X119380000Y-77720000D03*
X134620000Y-49780000D03*
D19*
X161075000Y-77750000D03*
X162175000Y-84250000D03*
X166175000Y-84250000D03*
X169175000Y-84250000D03*
D20*
X170775000Y-81000000D03*
X163775000Y-81000000D03*
M02*
