M48
INCH,TZ
T1C0.016
T2C0.028
T3C0.040
T4C0.043
T5C0.059
%
G90
G05
T1
X61713Y-30610
X62697Y-31004
X64469Y-29724
X66634Y-31890
T2
X33504Y-25000
X33504Y-32480
X33504Y-39961
X36575Y-25000
X36575Y-32480
X36575Y-39961
X38780Y-19724
X38780Y-22795
X38780Y-42165
X38780Y-45236
X40984Y-25000
X40984Y-32480
X40984Y-39961
X44055Y-25000
X44055Y-32480
X44055Y-39961
X46260Y-42165
X46260Y-45236
X48465Y-32480
X48465Y-39961
X51535Y-32480
X51535Y-39961
X53740Y-42165
X53740Y-45236
X53740Y-49646
X53740Y-52717
X55945Y-25000
X55945Y-32480
X55945Y-39961
X55945Y-47441
X59016Y-25000
X59016Y-32480
X59016Y-39961
X59016Y-47441
X61220Y-19823
X61220Y-22894
X61220Y-42165
X61220Y-45236
X61220Y-49646
X61220Y-52717
X63425Y-39961
X63425Y-47441
X63524Y-25000
X66496Y-39961
X66496Y-47441
X66594Y-25000
T3
X38189Y-18602
X39272Y-18602
X46260Y-32480
X61220Y-32480
T4
X47000Y-19598
X47000Y-20598
X47000Y-21598
X47000Y-22598
X47000Y-23598
X47000Y-24598
X47000Y-25598
X47000Y-26598
X47000Y-27598
X47000Y-28598
X47000Y-29598
X47000Y-30598
X53000Y-19598
X53000Y-20598
X53000Y-21598
X53000Y-22598
X53000Y-23598
X53000Y-24598
X53000Y-25598
X53000Y-26598
X53000Y-27598
X53000Y-28598
X53000Y-29598
X53000Y-30598
T5
X33539Y-20260
X33539Y-27740
X33539Y-35220
X33539Y-42701
X34039Y-19260
X34039Y-26740
X34039Y-34220
X34039Y-41701
X36039Y-19260
X36039Y-26740
X36039Y-34220
X36039Y-41701
X36539Y-20260
X36539Y-27740
X36539Y-35220
X36539Y-42701
X41020Y-20260
X41020Y-27740
X41020Y-35220
X41020Y-42701
X41520Y-19260
X41520Y-26740
X41520Y-34220
X41520Y-41701
X43520Y-19260
X43520Y-26740
X43520Y-34220
X43520Y-41701
X44020Y-20260
X44020Y-27740
X44020Y-35220
X44020Y-42701
X48500Y-20260
X48500Y-27740
X48500Y-35220
X48500Y-42701
X48500Y-50181
X49000Y-19260
X49000Y-26740
X49000Y-34220
X49000Y-41701
X49000Y-49181
X51000Y-19260
X51000Y-26740
X51000Y-34220
X51000Y-41701
X51000Y-49181
X51500Y-20260
X51500Y-27740
X51500Y-35220
X51500Y-42701
X51500Y-50181
X55980Y-20260
X55980Y-27740
X55980Y-35220
X55980Y-42701
X55980Y-50181
X56480Y-19260
X56480Y-26740
X56480Y-34220
X56480Y-41701
X56480Y-49181
X58480Y-19260
X58480Y-26740
X58480Y-34220
X58480Y-41701
X58480Y-49181
X58980Y-20260
X58980Y-27740
X58980Y-35220
X58980Y-42701
X58980Y-50181
X63461Y-20260
X63461Y-27740
X63461Y-35220
X63461Y-42701
X63461Y-50181
X63961Y-19260
X63961Y-26740
X63961Y-34220
X63961Y-41701
X63961Y-49181
X65961Y-19260
X65961Y-26740
X65961Y-34220
X65961Y-41701
X65961Y-49181
X66461Y-20260
X66461Y-27740
X66461Y-35220
X66461Y-42701
X66461Y-50181
T0
M30
