G04 #@! TF.FileFunction,Profile,NP*
%FSLAX46Y46*%
G04 Gerber Fmt 4.6, Leading zero omitted, Abs format (unit mm)*
G04 Created by KiCad (PCBNEW 4.0.7) date 2017 December 11, Monday 10:28:10*
%MOMM*%
%LPD*%
G01*
G04 APERTURE LIST*
%ADD10C,0.100000*%
G04 APERTURE END LIST*
D10*
X120000000Y-123000000D02*
X134000000Y-123000000D01*
X134000000Y-123000000D02*
X134000000Y-137000000D01*
X134000000Y-137000000D02*
X120000000Y-137000000D01*
X120000000Y-137000000D02*
X120000000Y-123000000D01*
X139000000Y-123000000D02*
X153000000Y-123000000D01*
X153000000Y-123000000D02*
X153000000Y-137000000D01*
X153000000Y-137000000D02*
X139000000Y-137000000D01*
X139000000Y-137000000D02*
X139000000Y-123000000D01*
X158000000Y-123000000D02*
X172000000Y-123000000D01*
X172000000Y-123000000D02*
X172000000Y-137000000D01*
X172000000Y-137000000D02*
X158000000Y-137000000D01*
X158000000Y-137000000D02*
X158000000Y-123000000D01*
X82000000Y-85000000D02*
X96000000Y-85000000D01*
X96000000Y-85000000D02*
X96000000Y-99000000D01*
X96000000Y-99000000D02*
X82000000Y-99000000D01*
X82000000Y-99000000D02*
X82000000Y-85000000D01*
X101000000Y-85000000D02*
X115000000Y-85000000D01*
X115000000Y-85000000D02*
X115000000Y-99000000D01*
X115000000Y-99000000D02*
X101000000Y-99000000D01*
X101000000Y-99000000D02*
X101000000Y-85000000D01*
X120000000Y-85000000D02*
X134000000Y-85000000D01*
X134000000Y-85000000D02*
X134000000Y-99000000D01*
X134000000Y-99000000D02*
X120000000Y-99000000D01*
X120000000Y-99000000D02*
X120000000Y-85000000D01*
X139000000Y-85000000D02*
X153000000Y-85000000D01*
X153000000Y-85000000D02*
X153000000Y-99000000D01*
X153000000Y-99000000D02*
X139000000Y-99000000D01*
X139000000Y-99000000D02*
X139000000Y-85000000D01*
X158000000Y-85000000D02*
X172000000Y-85000000D01*
X172000000Y-85000000D02*
X172000000Y-99000000D01*
X172000000Y-99000000D02*
X158000000Y-99000000D01*
X158000000Y-99000000D02*
X158000000Y-85000000D01*
X158000000Y-118000000D02*
X158000000Y-104000000D01*
X172000000Y-118000000D02*
X158000000Y-118000000D01*
X172000000Y-104000000D02*
X172000000Y-118000000D01*
X158000000Y-104000000D02*
X172000000Y-104000000D01*
X139000000Y-118000000D02*
X139000000Y-104000000D01*
X153000000Y-118000000D02*
X139000000Y-118000000D01*
X153000000Y-104000000D02*
X153000000Y-118000000D01*
X139000000Y-104000000D02*
X153000000Y-104000000D01*
X120000000Y-118000000D02*
X120000000Y-104000000D01*
X134000000Y-118000000D02*
X120000000Y-118000000D01*
X134000000Y-104000000D02*
X134000000Y-118000000D01*
X120000000Y-104000000D02*
X134000000Y-104000000D01*
X101000000Y-118000000D02*
X101000000Y-104000000D01*
X115000000Y-118000000D02*
X101000000Y-118000000D01*
X115000000Y-104000000D02*
X115000000Y-118000000D01*
X101000000Y-104000000D02*
X115000000Y-104000000D01*
X82000000Y-118000000D02*
X82000000Y-104000000D01*
X96000000Y-118000000D02*
X82000000Y-118000000D01*
X96000000Y-104000000D02*
X96000000Y-118000000D01*
X82000000Y-104000000D02*
X96000000Y-104000000D01*
X82000000Y-66000000D02*
X96000000Y-66000000D01*
X96000000Y-66000000D02*
X96000000Y-80000000D01*
X96000000Y-80000000D02*
X82000000Y-80000000D01*
X82000000Y-80000000D02*
X82000000Y-66000000D01*
X101000000Y-66000000D02*
X115000000Y-66000000D01*
X115000000Y-66000000D02*
X115000000Y-80000000D01*
X115000000Y-80000000D02*
X101000000Y-80000000D01*
X101000000Y-80000000D02*
X101000000Y-66000000D01*
X120000000Y-66000000D02*
X134000000Y-66000000D01*
X134000000Y-66000000D02*
X134000000Y-80000000D01*
X134000000Y-80000000D02*
X120000000Y-80000000D01*
X120000000Y-80000000D02*
X120000000Y-66000000D01*
X139000000Y-66000000D02*
X153000000Y-66000000D01*
X153000000Y-66000000D02*
X153000000Y-80000000D01*
X153000000Y-80000000D02*
X139000000Y-80000000D01*
X139000000Y-80000000D02*
X139000000Y-66000000D01*
X158000000Y-66000000D02*
X172000000Y-66000000D01*
X172000000Y-66000000D02*
X172000000Y-80000000D01*
X172000000Y-80000000D02*
X158000000Y-80000000D01*
X158000000Y-80000000D02*
X158000000Y-66000000D01*
X158000000Y-61000000D02*
X158000000Y-47000000D01*
X172000000Y-61000000D02*
X158000000Y-61000000D01*
X172000000Y-47000000D02*
X172000000Y-61000000D01*
X158000000Y-47000000D02*
X172000000Y-47000000D01*
X139000000Y-61000000D02*
X139000000Y-47000000D01*
X153000000Y-61000000D02*
X139000000Y-61000000D01*
X153000000Y-47000000D02*
X153000000Y-61000000D01*
X139000000Y-47000000D02*
X153000000Y-47000000D01*
X120000000Y-61000000D02*
X120000000Y-47000000D01*
X134000000Y-61000000D02*
X120000000Y-61000000D01*
X134000000Y-47000000D02*
X134000000Y-61000000D01*
X120000000Y-47000000D02*
X134000000Y-47000000D01*
X101000000Y-61000000D02*
X101000000Y-47000000D01*
X115000000Y-61000000D02*
X101000000Y-61000000D01*
X115000000Y-47000000D02*
X115000000Y-61000000D01*
X101000000Y-47000000D02*
X115000000Y-47000000D01*
X82000000Y-61000000D02*
X82000000Y-47000000D01*
X96000000Y-61000000D02*
X82000000Y-61000000D01*
X96000000Y-47000000D02*
X96000000Y-61000000D01*
X82000000Y-47000000D02*
X96000000Y-47000000D01*
X117500000Y-120500000D02*
X117500000Y-139500000D01*
X79500000Y-120500000D02*
X117500000Y-120500000D01*
X117500000Y-139500000D02*
X174500000Y-139500000D01*
X174500000Y-44500000D02*
X174500000Y-139500000D01*
X79500000Y-44500000D02*
X79500000Y-120500000D01*
X79500000Y-44500000D02*
X174500000Y-44500000D01*
M02*
